<svg width="20" height="16" viewBox="0 0 20 16" fill="none" xmlns="http://www.w3.org/2000/svg">
<g clip-path="url(#clip0_2_744)">
<path d="M19.5 13.9992H0.5C0.22375 13.9992 0 14.223 0 14.4992V15.4992C0 15.7755 0.22375 15.9992 0.5 15.9992H19.5C19.7763 15.9992 20 15.7755 20 15.4992V14.4992C20 14.223 19.7763 13.9992 19.5 13.9992ZM1.40031 6.42611L4.17344 8.92611C4.40098 9.13157 4.67362 9.28068 4.96938 9.36142L13.9569 11.8099C14.7844 12.0352 15.6619 12.0824 16.4881 11.8524C17.4153 11.5939 17.8456 11.1895 17.9647 10.7364C18.0844 10.2833 17.9106 9.71423 17.2344 9.01892C16.6319 8.39954 15.8484 7.99423 15.0209 7.76892L11.9738 6.93892L8.8375 0.943606C8.79031 0.762043 8.65156 0.620168 8.47313 0.571418L6.43906 0.017356C6.10906 -0.072644 5.78594 0.183606 5.79187 0.531106L7.28937 5.66267L4.09562 4.79267L3.23344 2.67142C3.17313 2.51861 3.04562 2.40361 2.88906 2.36111L1.6475 2.02267C1.32438 1.93454 1.00594 2.17892 1 2.51892L1.00719 5.69954C1.01312 5.97798 1.19563 6.24142 1.40031 6.42611Z" fill="white" fill-opacity="0.8"/>
</g>
<defs>
<clipPath id="clip0_2_744">
<rect width="20" height="16" fill="white"/>
</clipPath>
</defs>
</svg>
