<svg width="20" height="16" viewBox="0 0 20 16" fill="none" xmlns="http://www.w3.org/2000/svg">
<g clip-path="url(#clip0_2_746)">
<path d="M19.5 14H0.500005C0.223755 14 4.90847e-06 14.2237 4.90847e-06 14.5V15.5C4.90847e-06 15.7762 0.223755 16 0.500005 16H19.5C19.7763 16 20 15.7762 20 15.5V14.5C20 14.2237 19.7763 14 19.5 14ZM2.51719 10.6647C2.71344 10.8784 2.98907 10.9997 3.2775 10.9994L7.35688 10.9937C7.67881 10.9933 7.99613 10.9171 8.28313 10.7712L17.3756 6.15717C18.2113 5.73311 18.9603 5.12779 19.47 4.33498C20.0422 3.44498 20.1044 2.80092 19.8784 2.34592C19.6531 1.89061 19.1053 1.55623 18.0581 1.48811C17.1253 1.42748 16.1975 1.67311 15.3619 2.09686L12.2834 3.65904L5.44907 1.09467C5.36689 1.03931 5.27143 1.00691 5.17254 1.00081C5.07364 0.994712 4.97492 1.01514 4.88657 1.05998L2.83188 2.10279C2.49844 2.27186 2.41782 2.71686 2.67032 2.99436L7.55219 6.05998L4.32688 7.69686L2.06594 6.55717C1.98805 6.5179 1.90201 6.49749 1.81477 6.4976C1.72754 6.49771 1.64155 6.51833 1.56375 6.55779L0.309692 7.19436C-0.0165576 7.35998 -0.102495 7.79186 0.13563 8.07186L2.51719 10.6647Z" fill="white" fill-opacity="0.8"/>
</g>
<defs>
<clipPath id="clip0_2_746">
<rect width="20" height="16" fill="white"/>
</clipPath>
</defs>
</svg>
