<svg width="57" height="57" viewBox="0 0 57 57" fill="none" xmlns="http://www.w3.org/2000/svg">
<path d="M28.5 6.76875C29.4825 6.76875 30.4553 6.96226 31.363 7.33823C32.2706 7.71419 33.0953 8.26526 33.79 8.95996C34.4847 9.65466 35.0358 10.4794 35.4118 11.387C35.7877 12.2947 35.9813 13.2675 35.9813 14.25C35.9813 15.2325 35.7877 16.2053 35.4118 17.113C35.0358 18.0206 34.4847 18.8453 33.79 19.54C33.0953 20.2347 32.2706 20.7858 31.363 21.1618C30.4553 21.5377 29.4825 21.7313 28.5 21.7313C26.5159 21.7313 24.613 20.943 23.21 19.54C21.807 18.137 21.0187 16.2341 21.0187 14.25C21.0187 12.2658 21.807 10.363 23.21 8.95996C24.613 7.55695 26.5159 6.76875 28.5 6.76875ZM28.5 38.8312C39.0806 38.8312 50.2313 44.0325 50.2313 46.3125V50.2313H6.76875V46.3125C6.76875 44.0325 17.9194 38.8312 28.5 38.8312ZM28.5 0C20.6269 0 14.25 6.37687 14.25 14.25C14.25 22.1231 20.6269 28.5 28.5 28.5C36.3731 28.5 42.75 22.1231 42.75 14.25C42.75 6.37687 36.3731 0 28.5 0ZM28.5 32.0625C18.9881 32.0625 0 36.8363 0 46.3125V57H57V46.3125C57 36.8363 38.0119 32.0625 28.5 32.0625Z" fill="white" fill-opacity="0.2"/>
</svg>
