<svg width="33" height="32" viewBox="0 0 33 32" fill="none" xmlns="http://www.w3.org/2000/svg">
<g clip-path="url(#clip0_3_623)">
<g clip-path="url(#clip1_3_623)">
<path d="M29.1163 4.01875C25.5038 0.981246 19.9226 1.4375 16.4663 4.95625C13.0101 1.4375 7.42882 0.974996 3.81632 4.01875C-0.883684 7.975 -0.196184 14.425 3.15382 17.8437L14.1163 29.0125C14.7413 29.65 15.5788 30.0062 16.4663 30.0062C17.3601 30.0062 18.1913 29.6562 18.8163 29.0187L29.7788 17.85C33.1226 14.4312 33.8226 7.98125 29.1163 4.01875ZM27.6413 15.7375L16.6788 26.9062C16.5288 27.0562 16.4038 27.0562 16.2538 26.9062L5.29132 15.7375C3.01007 13.4125 2.54757 9.0125 5.74757 6.31875C8.17882 4.275 11.9288 4.58125 14.2788 6.975L16.4663 9.20625L18.6538 6.975C21.0163 4.56875 24.7663 4.275 27.1851 6.3125C30.3788 9.00625 29.9038 13.4312 27.6413 15.7375Z" fill="#13B7CC"/>
</g>
</g>
<defs>
<clipPath id="clip0_3_623">
<rect width="32" height="32" fill="white" transform="translate(0.466309)"/>
</clipPath>
<clipPath id="clip1_3_623">
<rect width="32" height="32" fill="white" transform="translate(0.466309)"/>
</clipPath>
</defs>
</svg>
