<svg width="33" height="32" viewBox="0 0 33 32" fill="none" xmlns="http://www.w3.org/2000/svg">
<g clip-path="url(#clip0_3_619)">
<g clip-path="url(#clip1_3_619)">
<path d="M29.2663 2H3.66631C1.90151 2 0.466309 3.39533 0.466309 5.11111V26.8889C0.466309 28.6047 1.90151 30 3.66631 30H29.2663C31.0311 30 32.4663 28.6047 32.4663 26.8889V5.11111C32.4663 3.39533 31.0311 2 29.2663 2ZM4.96631 27.5C3.86174 27.5 2.96631 26.6046 2.96631 25.5V6.5C2.96631 5.39543 3.86174 4.5 4.96631 4.5H27.9663C29.0709 4.5 29.9663 5.39543 29.9663 6.5V25.5C29.9663 26.6046 29.0709 27.5 27.9663 27.5H4.96631Z" fill="#13B7CC"/>
<path d="M6.46631 9.85C6.46631 9.10442 7.07072 8.5 7.81631 8.5H25.1163C25.8619 8.5 26.4663 9.10442 26.4663 9.85C26.4663 10.5956 25.8619 11.2 25.1163 11.2H7.81631C7.07072 11.2 6.46631 10.5956 6.46631 9.85ZM6.46631 16.3C6.46631 15.582 7.04834 15 7.76631 15H25.1663C25.8843 15 26.4663 15.582 26.4663 16.3C26.4663 17.018 25.8843 17.6 25.1663 17.6H7.76631C7.04834 17.6 6.46631 17.018 6.46631 16.3ZM6.46631 21.9C6.46631 21.2925 6.9588 20.8 7.56631 20.8H15.3663C15.9738 20.8 16.4663 21.2925 16.4663 21.9C16.4663 22.5075 15.9738 23 15.3663 23H7.56631C6.9588 23 6.46631 22.5075 6.46631 21.9Z" fill="#13B7CC"/>
</g>
</g>
<defs>
<clipPath id="clip0_3_619">
<rect width="32" height="32" fill="white" transform="translate(0.466309)"/>
</clipPath>
<clipPath id="clip1_3_619">
<rect width="32" height="32" fill="white" transform="translate(0.466309)"/>
</clipPath>
</defs>
</svg>
