<svg width="33" height="32" viewBox="0 0 33 32" fill="none" xmlns="http://www.w3.org/2000/svg">
<g clip-path="url(#clip0_3_609)">
<g clip-path="url(#clip1_3_609)">
<path d="M23.7997 8.66666L31.133 12V29.3333L21.7997 25.3333M21.7997 25.3333L11.133 29.3333M21.7997 25.3333V16M11.133 29.3333L1.79965 25.3333V8L8.46632 10.6667M11.133 29.3333V16M16.4663 21.6973C16.4663 21.6973 8.46632 15.3333 8.46632 9.33333C8.46632 4.33333 12.4663 1.33333 16.4663 1.33333C20.4663 1.33333 24.4663 4.33333 24.4663 9.33333C24.4663 15.3333 16.4663 21.6973 16.4663 21.6973ZM17.7997 9.33333C17.7997 8.97971 17.6592 8.64057 17.4091 8.39052C17.1591 8.14047 16.8199 8 16.4663 8C16.1127 8 15.7736 8.14047 15.5235 8.39052C15.2735 8.64057 15.133 8.97971 15.133 9.33333C15.133 9.68695 15.2735 10.0261 15.5235 10.2761C15.7736 10.5262 16.1127 10.6667 16.4663 10.6667C16.8199 10.6667 17.1591 10.5262 17.4091 10.2761C17.6592 10.0261 17.7997 9.68695 17.7997 9.33333Z" stroke="#13B7CC" stroke-width="2.66667"/>
</g>
</g>
<defs>
<clipPath id="clip0_3_609">
<rect width="32" height="32" fill="white" transform="translate(0.466309)"/>
</clipPath>
<clipPath id="clip1_3_609">
<rect width="32" height="32" fill="white" transform="translate(0.466309)"/>
</clipPath>
</defs>
</svg>
