<svg width="33" height="32" viewBox="0 0 33 32" fill="none" xmlns="http://www.w3.org/2000/svg">
<g clip-path="url(#clip0_3_615)">
<g clip-path="url(#clip1_3_615)">
<path fill-rule="evenodd" clip-rule="evenodd" d="M6.16826 3.41172C6.16826 2.7797 5.6559 2.26733 5.02388 2.26733C4.39185 2.26733 3.87949 2.77969 3.87949 3.41172V12.5668C3.87949 13.1989 4.39185 13.7112 5.02388 13.7112C5.6559 13.7112 6.16826 13.1989 6.16826 12.5668V3.41172ZM20.6591 13.0497C20.3245 13.4678 19.8181 13.7112 19.2826 13.7112H13.7556C13.1588 13.7112 12.598 13.4257 12.247 12.943C12.0151 12.6241 11.8902 12.24 11.8902 11.8458V10.7954C11.8902 10.3884 12.0396 9.99559 12.31 9.69141C12.6253 9.33665 13.0773 9.13367 13.552 9.13367H19.2826C19.8181 9.13367 20.3245 9.37708 20.6591 9.79522C20.9091 10.1078 21.0453 10.4961 21.0453 10.8964V11.9485C21.0453 12.3488 20.9091 12.7371 20.6591 13.0497ZM9.21516 19.916C8.88065 20.3341 8.3742 20.5776 7.83871 20.5776H2.20903C1.67355 20.5776 1.1671 20.3341 0.832586 19.916C0.582544 19.6034 0.44632 19.2151 0.44632 18.8148V17.7627C0.44632 17.3625 0.582544 16.9741 0.832586 16.6616C1.1671 16.2434 1.67355 16 2.20904 16H7.83872C8.3742 16 8.88065 16.2434 9.21516 16.6616C9.46521 16.9741 9.60143 17.3625 9.60143 17.7627V18.8148C9.60143 19.2151 9.46521 19.6034 9.21516 19.916ZM17.6122 3.41172C17.6122 2.77969 17.0998 2.26733 16.4678 2.26733C15.8357 2.26733 15.3234 2.77969 15.3234 3.41172V5.7005C15.3234 6.33253 15.8357 6.84489 16.4678 6.84489C17.0998 6.84489 17.6122 6.33253 17.6122 5.7005V3.41172ZM15.3234 17.1444C15.3234 16.5124 15.8357 16 16.4678 16C17.0998 16 17.6122 16.5124 17.6122 17.1444V28.5883C17.6122 29.2203 17.0998 29.7327 16.4678 29.7327C15.8357 29.7327 15.3234 29.2203 15.3234 28.5883V17.1444ZM6.16826 24.0107C6.16826 23.3787 5.6559 22.8663 5.02388 22.8663C4.39185 22.8663 3.87949 23.3787 3.87949 24.0107V28.5883C3.87949 29.2203 4.39185 29.7327 5.02388 29.7327C5.6559 29.7327 6.16826 29.2203 6.16826 28.5883V24.0107ZM23.7204 22.2048C24.0549 22.6229 24.5613 22.8663 25.0968 22.8663H30.7036C31.2391 22.8663 31.7455 22.6229 32.0801 22.2048C32.3301 21.8922 32.4663 21.5039 32.4663 21.1036V20.1659C32.4663 19.7657 32.3301 19.3773 32.0801 19.0648C31.7455 18.6466 31.2391 18.4032 30.7036 18.4032H25.0968C24.5613 18.4032 24.0549 18.6466 23.7204 19.0648C23.4703 19.3773 23.3341 19.7657 23.3341 20.1659V21.1036C23.3341 21.5039 23.4703 21.8922 23.7204 22.2048ZM29.056 3.41172C29.056 2.77969 28.5437 2.26733 27.9117 2.26733C27.2796 2.26733 26.7673 2.77969 26.7673 3.41172V14.8556C26.7673 15.4876 27.2796 16 27.9117 16C28.5437 16 29.056 15.4876 29.056 14.8556V3.41172ZM26.7673 26.2995C26.7673 25.6675 27.2796 25.1551 27.9117 25.1551C28.5437 25.1551 29.056 25.6675 29.056 26.2995V28.5883C29.056 29.2203 28.5437 29.7327 27.9117 29.7327C27.2796 29.7327 26.7673 29.2203 26.7673 28.5883V26.2995Z" fill="#13B7CC"/>
</g>
</g>
<defs>
<clipPath id="clip0_3_615">
<rect width="32" height="32" fill="white" transform="translate(0.466309)"/>
</clipPath>
<clipPath id="clip1_3_615">
<rect width="32" height="32" fill="white" transform="translate(0.466309)"/>
</clipPath>
</defs>
</svg>
