<svg width="33" height="34" viewBox="0 0 33 34" fill="none" xmlns="http://www.w3.org/2000/svg">
<path d="M14.555 2.05312V3.25626H4.28935C3.74483 3.25626 3.22261 3.47257 2.83758 3.8576C2.45254 4.24264 2.23623 4.76486 2.23623 5.30938V12.4156C2.23623 12.9602 2.45254 13.4824 2.83758 13.8674C3.22261 14.2524 3.74483 14.4688 4.28935 14.4688H14.555V16.5219H5.31592C4.99718 16.5219 4.68282 16.5961 4.39773 16.7386C4.11264 16.8812 3.86466 17.0881 3.67342 17.3431L1.67162 21.0122C1.53835 21.1899 1.46631 21.406 1.46631 21.6281C1.46631 21.8502 1.53835 22.0664 1.67162 22.2441L3.67342 25.9131C3.86466 26.1681 4.11264 26.3751 4.39773 26.5176C4.68282 26.6602 4.99718 26.7344 5.31592 26.7344H14.555V34H18.6612V26.7344H28.9268C29.4714 26.7344 29.9936 26.5181 30.3786 26.133C30.7637 25.748 30.98 25.2258 30.98 24.6813V18.575C30.98 18.0305 30.7637 17.5083 30.3786 17.1232C29.9936 16.7382 29.4714 16.5219 28.9268 16.5219H18.6612V14.4688H27.9003C28.219 14.4688 28.5334 14.3945 28.8185 14.252C29.1036 14.1095 29.3515 13.9025 29.5428 13.6475L31.5446 8.97844C31.6779 8.80075 31.7499 8.58462 31.7499 8.3625C31.7499 8.14039 31.6779 7.92426 31.5446 7.74657L29.5428 4.07751C29.3515 3.82252 29.1036 3.61555 28.8185 3.47301C28.5334 3.33047 28.219 3.25626 27.9003 3.25626H18.6612V2.05312C18.6612 1.5086 18.4449 0.986382 18.0599 0.601346C17.6748 0.216311 17.1526 0 16.6081 0C16.0636 0 15.5414 0.216311 15.1563 0.601346C14.7713 0.986382 14.555 1.5086 14.555 2.05312ZM27.9003 5.30938L29.4401 8.3625L27.9003 12.4156H4.28935V5.30938H27.9003ZM28.9268 18.575V24.6813H5.31592L3.77607 21.6281L5.31592 18.575H28.9268Z" fill="white"/>
</svg>
